<?xml version="1.0" encoding="utf-8"?>
<!-- Generator: Adobe Illustrator 16.0.0, SVG Export Plug-In . SVG Version: 6.00 Build 0)  -->
<!DOCTYPE svg PUBLIC "-//W3C//DTD SVG 1.1//EN" "http://www.w3.org/Graphics/SVG/1.1/DTD/svg11.dtd">
<svg version="1.1" id="Capa_1" xmlns="http://www.w3.org/2000/svg" xmlns:xlink="http://www.w3.org/1999/xlink" x="0px" y="0px"
	 width="259.143px" height="260.672px" viewBox="-669.976 493.167 259.143 260.672"
	 enable-background="new -669.976 493.167 259.143 260.672" xml:space="preserve">
<path opacity="0.3" fill="#232323" d="M-546.173,548.019l118.686,18.398c0,0,52.711,107.207-59.343,171.902l-94.502-37.631
	l41.401-13.477v-16.908v-13.322l13.333-0.668l2.711-15.615l2.374-31.883l-23.57-15.371L-546.173,548.019z"/>
<circle fill="none" stroke="#FFFFFF" stroke-width="2.8346" stroke-miterlimit="10" cx="-539.931" cy="623.794" r="126.21"/>
<circle opacity="0.2" fill="#020202" cx="-540.404" cy="623.794" r="126.21"/>
<g>
	<path fill="#FFFFFF" d="M-615.105,600.669c0.909,3.117,2.172,6.127,3.768,8.949l-4.548,5.736c-1.486,1.875-1.318,4.549,0.353,6.238
		l7.835,7.836c1.689,1.689,4.363,1.838,6.238,0.352l5.701-4.512c2.934,1.689,6.052,3.008,9.302,3.938l0.854,7.333
		c0.278,2.377,2.284,4.159,4.66,4.159h11.084c2.376,0,4.382-1.782,4.661-4.159l0.816-7.073c3.491-0.91,6.832-2.266,9.97-4.029
		l5.514,4.363c1.876,1.484,4.549,1.318,6.239-0.354l7.835-7.836c1.69-1.688,1.838-4.362,0.353-6.238l-4.288-5.439
		c1.781-3.082,3.174-6.367,4.103-9.803l6.609-0.762c2.377-0.278,4.159-2.283,4.159-4.66v-11.084c0-2.377-1.782-4.382-4.159-4.66
		l-6.516-0.762c-0.892-3.398-2.229-6.646-3.938-9.691l4.011-5.07c1.485-1.875,1.319-4.548-0.352-6.237l-7.817-7.817
		c-1.69-1.689-4.363-1.838-6.239-0.352l-4.92,3.898c-3.193-1.875-6.609-3.305-10.193-4.27l-0.743-6.369
		c-0.279-2.377-2.284-4.158-4.661-4.158h-11.084c-2.376,0-4.381,1.781-4.66,4.158l-0.743,6.369
		c-3.677,0.984-7.186,2.469-10.454,4.418l-5.106-4.047c-1.875-1.486-4.549-1.318-6.238,0.352l-7.835,7.836
		c-1.69,1.689-1.839,4.363-0.353,6.238l4.27,5.402c-1.708,3.084-3.007,6.369-3.862,9.785l-6.832,0.781
		c-2.376,0.277-4.158,2.283-4.158,4.66v11.084c0,2.376,1.782,4.381,4.158,4.66L-615.105,600.669z M-574.945,570.683
		c10.1,0,18.326,8.225,18.326,18.324c0,10.102-8.226,18.326-18.326,18.326s-18.325-8.225-18.325-18.326
		C-593.271,578.907-585.045,570.683-574.945,570.683z"/>
	<path fill="#FFFFFF" d="M-465.364,603.397l-5.848-4.938c-1.803-1.522-4.457-1.448-6.165,0.167l-3.23,3.026
		c-2.729-1.319-5.626-2.247-8.614-2.785l-0.91-4.456c-0.464-2.303-2.601-3.898-4.939-3.713l-7.631,0.649
		c-2.339,0.204-4.177,2.116-4.252,4.476l-0.147,4.529c-2.935,1.059-5.699,2.506-8.226,4.326l-3.862-2.562
		c-1.968-1.3-4.586-0.928-6.108,0.873l-4.939,5.885c-1.521,1.802-1.447,4.457,0.168,6.164l3.379,3.602
		c-1.169,2.639-2.004,5.404-2.488,8.244l-4.827,0.984c-2.302,0.465-3.898,2.6-3.713,4.939l0.65,7.631
		c0.204,2.34,2.115,4.178,4.475,4.252l5.217,0.166c0.947,2.488,2.19,4.848,3.695,7.057l-2.916,4.4
		c-1.299,1.967-0.929,4.586,0.873,6.107l5.849,4.939c1.8,1.522,4.456,1.448,6.164-0.168l3.824-3.583
		c2.507,1.171,5.145,2.043,7.854,2.562l1.06,5.235c0.464,2.303,2.6,3.9,4.938,3.713l7.631-0.648c2.34-0.205,4.179-2.117,4.252-4.475
		l0.168-5.125c2.785-0.984,5.422-2.32,7.854-3.973l4.216,2.785c1.967,1.299,4.585,0.928,6.107-0.873l4.939-5.85
		c1.521-1.801,1.448-4.455-0.168-6.164l-3.397-3.602c1.244-2.636,2.154-5.422,2.674-8.28l4.642-0.946
		c2.302-0.465,3.899-2.6,3.714-4.939l-0.651-7.631c-0.203-2.34-2.115-4.178-4.475-4.252l-4.659-0.148
		c-0.965-2.711-2.266-5.273-3.881-7.65l2.544-3.824C-463.191,607.556-463.563,604.921-465.364,603.397z M-494.123,647.513
		c-8.244,0.705-15.522-5.441-16.21-13.684c-0.705-8.244,5.44-15.521,13.686-16.209c8.241-0.706,15.52,5.439,16.207,13.684
		C-479.733,639.546-485.881,646.825-494.123,647.513z"/>
	<path fill="#FFFFFF" d="M-588.407,668.048c-2.339,0.24-4.14,2.209-4.159,4.566l-0.055,4.697c-0.038,2.359,1.708,4.363,4.046,4.662
		l3.454,0.444c0.576,2.099,1.392,4.104,2.451,5.997l-2.228,2.748c-1.485,1.838-1.374,4.475,0.278,6.164l3.287,3.361
		c1.652,1.689,4.289,1.875,6.164,0.426l2.767-2.135c1.95,1.151,4.01,2.061,6.165,2.691l0.37,3.565
		c0.242,2.339,2.21,4.142,4.568,4.159l4.698,0.057c2.357,0.037,4.362-1.709,4.66-4.049l0.428-3.379
		c2.34-0.576,4.567-1.447,6.684-2.6l2.599,2.098c1.839,1.486,4.475,1.375,6.165-0.277l3.36-3.287
		c1.69-1.652,1.875-4.288,0.428-6.164l-1.986-2.58c1.225-2.043,2.172-4.215,2.822-6.499l3.081-0.315
		c2.34-0.242,4.141-2.21,4.16-4.567l0.055-4.698c0.037-2.357-1.708-4.363-4.048-4.659l-3.007-0.39
		c-0.577-2.266-1.43-4.457-2.544-6.5l1.875-2.301c1.485-1.838,1.373-4.475-0.278-6.164l-3.286-3.361
		c-1.653-1.689-4.289-1.875-6.165-0.428l-2.248,1.729c-2.116-1.283-4.381-2.266-6.758-2.935l-0.296-2.915
		c-0.241-2.34-2.21-4.141-4.567-4.159l-4.697-0.056c-2.359-0.037-4.364,1.709-4.661,4.048l-0.371,2.896
		c-2.451,0.63-4.81,1.597-7,2.858l-2.32-1.893c-1.838-1.486-4.475-1.375-6.165,0.277l-3.379,3.307
		c-1.689,1.652-1.875,4.287-0.427,6.164l1.987,2.562c-1.151,2.041-2.061,4.213-2.655,6.498L-588.407,668.048z M-558.087,662.737
		c6.74,0.074,12.143,5.625,12.069,12.365c-0.075,6.74-5.626,12.143-12.367,12.068c-6.739-0.074-12.142-5.625-12.067-12.365
		C-570.378,668.065-564.827,662.663-558.087,662.737z"/>
</g>
</svg>
