<?xml version="1.0" encoding="utf-8"?>
<!-- Generator: Adobe Illustrator 16.0.0, SVG Export Plug-In . SVG Version: 6.00 Build 0)  -->
<!DOCTYPE svg PUBLIC "-//W3C//DTD SVG 1.1//EN" "http://www.w3.org/Graphics/SVG/1.1/DTD/svg11.dtd">
<svg version="1.1" id="Layer_1" xmlns="http://www.w3.org/2000/svg" xmlns:xlink="http://www.w3.org/1999/xlink" x="0px" y="0px"
	 width="113.667px" height="114.185px" viewBox="0 0 113.667 114.185" enable-background="new 0 0 113.667 114.185"
	 xml:space="preserve">
<g opacity="0.3">
	<g>
		<defs>
			<rect id="SVGID_1_" x="47.049" y="22.868" width="63.139" height="84.34"/>
		</defs>
		<clipPath id="SVGID_2_">
			<use xlink:href="#SVGID_1_"  overflow="visible"/>
		</clipPath>
		<path clip-path="url(#SVGID_2_)" fill="#232323" d="M62.25,25.601l45.747,18.324c0,0,15.074,45.354-33.787,63.285l-27.16-14.684
			l21.052,0.52l-4.158-6.237l-6.41-7.971l3.984-5.371l16.46-30.149L62.25,25.601z"/>
	</g>
</g>
<path fill="#FFFFFF" d="M46.937,93.928h18.068c1.664,0,3.011-1.347,3.011-3.011s-1.347-3.01-3.011-3.01H46.937
	c-1.664,0-3.011,1.346-3.011,3.01S45.272,93.928,46.937,93.928"/>
<path fill="#FFFFFF" d="M55.971,22.868c-12.488,0-22.648,10.158-22.648,22.646c0,5.611,2.49,10.6,4.898,15.424
	c1.903,3.826,3.696,7.431,3.696,10.355c0,3.012,2.45,5.461,5.46,5.461h17.187c3.012,0,5.46-2.449,5.46-5.461
	c0-3.096,1.817-6.711,3.741-10.538c2.386-4.755,4.854-9.67,4.854-15.241C78.619,33.026,68.458,22.868,55.971,22.868 M55.971,55.092
	c-1.827,0-3.313,1.486-3.313,3.312V70.13h-4.165c-0.337-4.097-2.372-8.182-4.345-12.143c-2.064-4.146-4.2-8.434-4.2-12.473
	c0-8.836,7.188-16.023,16.023-16.023s16.023,7.188,16.023,16.023c0,4.004-2.016,8.018-4.148,12.267
	c-2.003,3.989-4.068,8.104-4.398,12.349h-4.164V58.403C59.284,56.577,57.797,55.092,55.971,55.092"/>
<path fill="#FFFFFF" d="M63.58,49.631c0-1.827-1.485-3.313-3.312-3.313h-8.594c-1.826,0-3.311,1.486-3.311,3.313
	c0,1.826,1.485,3.313,3.311,3.313h8.594C62.094,52.944,63.58,51.458,63.58,49.631"/>
<path fill="#FFFFFF" d="M51.674,44.17h8.594c1.826,0,3.312-1.485,3.312-3.312s-1.486-3.312-3.312-3.312h-8.594
	c-1.826,0-3.312,1.485-3.312,3.312S49.847,44.17,51.674,44.17"/>
<path fill="#FFFFFF" d="M46.937,85.405h18.068c1.664,0,3.011-1.348,3.011-3.012s-1.347-3.012-3.011-3.012H46.937
	c-1.664,0-3.011,1.348-3.011,3.012S45.272,85.405,46.937,85.405"/>
<circle fill="none" stroke="#FFFFFF" stroke-width="2.8347" stroke-miterlimit="10" cx="56.727" cy="58.397" r="52.5"/>
</svg>
