<?xml version="1.0" encoding="utf-8"?>
<!-- Generator: Adobe Illustrator 16.0.0, SVG Export Plug-In . SVG Version: 6.00 Build 0)  -->
<!DOCTYPE svg PUBLIC "-//W3C//DTD SVG 1.1//EN" "http://www.w3.org/Graphics/SVG/1.1/DTD/svg11.dtd">
<svg version="1.1" id="Layer_1" xmlns="http://www.w3.org/2000/svg" xmlns:xlink="http://www.w3.org/1999/xlink" x="0px" y="0px"
	 width="113.667px" height="114.186px" viewBox="0 0 113.667 114.186" enable-background="new 0 0 113.667 114.186"
	 xml:space="preserve">
<circle fill="#FFFFFF" cx="56.354" cy="58.397" r="52.5"/>
<g opacity="0.3">
	<g>
		<g>
			<defs>
				<rect id="SVGID_1_" x="46.675" y="22.868" width="63.139" height="84.34"/>
			</defs>
			<clipPath id="SVGID_2_">
				<use xlink:href="#SVGID_1_"  overflow="visible"/>
			</clipPath>
			<path clip-path="url(#SVGID_2_)" fill="#232323" d="M60.912,25.351l45.748,18.323c0,0,12.262,35.476-21.389,58.543
				c-3.547,2.431-9.457,5.125-13.223,6.293L45.712,92.276l21.051,0.52l-4.158-6.236l-6.409-7.972l3.983-5.371L76.64,43.068
				L60.912,25.351z"/>
		</g>
	</g>
</g>
<path fill="#06AED2" d="M46.563,93.928h18.069c1.664,0,3.01-1.348,3.01-3.012s-1.346-3.01-3.01-3.01H46.563
	c-1.664,0-3.012,1.346-3.012,3.01S44.898,93.928,46.563,93.928"/>
<path fill="#06AED2" d="M55.598,22.868c-12.488,0-22.647,10.158-22.647,22.646c0,5.61,2.489,10.6,4.897,15.424
	c1.903,3.826,3.696,7.431,3.696,10.354c0,3.013,2.449,5.461,5.459,5.461h17.188c3.012,0,5.459-2.448,5.459-5.461
	c0-3.096,1.818-6.711,3.742-10.538c2.385-4.755,4.854-9.67,4.854-15.24C78.246,33.026,68.085,22.868,55.598,22.868 M55.598,55.092
	c-1.827,0-3.313,1.486-3.313,3.312V70.13H48.12c-0.338-4.097-2.373-8.182-4.346-12.143c-2.064-4.146-4.199-8.435-4.199-12.473
	c0-8.837,7.188-16.023,16.022-16.023c8.835,0,16.023,7.188,16.023,16.023c0,4.004-2.016,8.018-4.148,12.267
	c-2.002,3.989-4.068,8.104-4.396,12.349h-4.164V58.403C58.912,56.577,57.423,55.092,55.598,55.092"/>
<path fill="#06AED2" d="M63.207,49.631c0-1.826-1.484-3.312-3.312-3.312H51.3c-1.825,0-3.311,1.486-3.311,3.312
	s1.485,3.313,3.311,3.313h8.594C61.72,52.944,63.207,51.458,63.207,49.631"/>
<path fill="#06AED2" d="M51.3,44.17h8.594c1.826,0,3.312-1.484,3.312-3.312s-1.486-3.312-3.312-3.312H51.3
	c-1.825,0-3.312,1.485-3.312,3.312S49.474,44.17,51.3,44.17"/>
<path fill="#06AED2" d="M46.563,85.405h18.069c1.664,0,3.01-1.348,3.01-3.012s-1.346-3.013-3.01-3.013H46.563
	c-1.664,0-3.012,1.349-3.012,3.013S44.898,85.405,46.563,85.405"/>
<g>
	<g>
		<defs>
			<rect id="SVGID_3_" x="-153.496" y="-11.227" width="103.439" height="104.169"/>
		</defs>
		<clipPath id="SVGID_4_">
			<use xlink:href="#SVGID_3_"  overflow="visible"/>
		</clipPath>
		<path clip-path="url(#SVGID_4_)" fill="#FFFFFF" d="M-50.056,40.859c0,28.767-23.156,52.089-51.721,52.089
			c-28.562,0-51.719-23.322-51.719-52.089c0-28.768,23.156-52.089,51.719-52.089C-73.212-11.23-50.056,12.091-50.056,40.859"/>
	</g>
</g>
<path opacity="0.3" fill="#232323" d="M-77.923,13.54l5,5.978l22.867,21.341c0,0,0.264,12.748-6.58,25.437
	c-8.004,14.836-25.043,29.723-53.219,26.02l-20.957-22.414l14.657-3.457l2.136-2.029l32.532-32.534l7.021-6.84L-77.923,13.54z"/>
<path fill="#06AED2" d="M-127.656,54.943l11.501,11.501l-0.285,0.57l-14.372,2.887l2.871-14.373L-127.656,54.943z M-125.611,52.823
	l11.592,11.591l32.532-32.534L-93.078,20.29L-125.611,52.823z M-74.466,16.983l-3.457-3.443c-2.301-2.3-5.743-2.3-8.043,0
	l-4.887,4.886l11.501,11.501l4.886-4.886C-72.166,22.74-72.166,18.997-74.466,16.983z"/>
</svg>
