<?xml version="1.0" encoding="utf-8"?>
<!-- Generator: Adobe Illustrator 16.0.0, SVG Export Plug-In . SVG Version: 6.00 Build 0)  -->
<!DOCTYPE svg PUBLIC "-//W3C//DTD SVG 1.1//EN" "http://www.w3.org/Graphics/SVG/1.1/DTD/svg11.dtd">
<svg version="1.1" id="Layer_1" xmlns="http://www.w3.org/2000/svg" xmlns:xlink="http://www.w3.org/1999/xlink" x="0px" y="0px"
	 width="113.667px" height="111.333px" viewBox="0 0 113.667 111.333" enable-background="new 0 0 113.667 111.333"
	 xml:space="preserve">
<path opacity="0.3" fill="#232323" d="M56.125,17.587l40.341,4.464c0,0,21.778,21.002,5.989,58.309c0,0-13.353,22.5-29.842,25.145
	L57.701,91.803L69,80.333l-0.333-46.667L56.125,17.587z"/>
<path fill="#FFFFFF" d="M66.973,32.49l-0.001,45.729c0.001,2.473-0.965,4.801-2.72,6.555c-1.753,1.754-4.078,2.717-6.552,2.718
	c-2.474-0.001-4.801-0.967-6.555-2.721c-1.754-1.753-2.719-4.083-2.721-6.555l-0.001-50.518c-0.001-3.177,2.78-5.956,5.958-5.958
	c3.281,0.001,5.954,2.674,5.956,5.956l0.001,45.355c-0.001,1.342-1.174,2.517-2.518,2.515c-0.67,0.002-1.299-0.26-1.777-0.734
	c-0.475-0.474-0.738-1.109-0.736-1.779L55.307,40.36c0.001-0.576-0.223-1.118-0.628-1.526c-0.409-0.408-0.951-0.631-1.529-0.631
	c-1.154,0.001-2.152,1-2.152,2.156l-0.001,32.694c0.001,1.821,0.708,3.534,2.001,4.826c1.291,1.292,3.005,2,4.826,2.001
	c3.639,0,6.826-3.182,6.826-6.827V27.699c-0.001-2.74-1.07-5.316-3.012-7.26c-1.939-1.941-4.519-3.01-7.258-3.01
	c-2.738,0-5.314,1.069-7.256,3.01c-1.94,1.941-3.012,4.52-3.014,7.26l0.002,50.516c0,3.625,1.415,7.035,3.984,9.604
	s5.979,3.983,9.604,3.983c3.623,0,7.03-1.412,9.601-3.982c2.569-2.569,3.983-5.979,3.985-9.604l-0.002-45.722
	c0.002-0.578-0.223-1.117-0.628-1.527c-0.407-0.408-0.95-0.631-1.526-0.629C67.978,30.335,66.976,31.337,66.973,32.49"/>
<circle fill="none" stroke="#FFFFFF" stroke-width="2.8347" stroke-miterlimit="10" cx="56.125" cy="55.648" r="52.5"/>
</svg>
