<?xml version="1.0" encoding="utf-8"?>
<!-- Generator: Adobe Illustrator 16.0.0, SVG Export Plug-In . SVG Version: 6.00 Build 0)  -->
<!DOCTYPE svg PUBLIC "-//W3C//DTD SVG 1.1//EN" "http://www.w3.org/Graphics/SVG/1.1/DTD/svg11.dtd">
<svg version="1.1" id="Layer_1" xmlns="http://www.w3.org/2000/svg" xmlns:xlink="http://www.w3.org/1999/xlink" x="0px" y="0px"
	 width="109.667px" height="109px" viewBox="0 0 109.667 109" enable-background="new 0 0 109.667 109" xml:space="preserve">
<g>
	<path fill="none" stroke="#FFFFFF" stroke-width="2.8347" stroke-miterlimit="10" d="M107.666,54.504
		c0,28.998-23.505,52.505-52.5,52.505c-28.993,0-52.499-23.507-52.499-52.505C2.667,25.507,26.172,2,55.165,2
		C84.16,2,107.666,25.507,107.666,54.504"/>
</g>
<path opacity="0.3" fill="#232323" d="M79.378,26.967l5.076,6.026l23.211,21.511c0,0,0.268,12.849-6.68,25.64
	c-8.124,14.956-25.419,29.959-54.02,26.227L25.692,83.778l14.878-3.485l2.167-2.046l33.023-32.792l7.127-6.895L79.378,26.967z"/>
<path fill="#FFFFFF" d="M28.897,68.701l11.674,11.592l-0.29,0.576l-14.589,2.909l2.915-14.486L28.897,68.701z M30.972,66.563
	l11.766,11.684l33.023-32.792L63.996,33.771L30.972,66.563z M82.888,30.438l-3.51-3.471c-2.335-2.318-5.83-2.318-8.164,0
	l-4.96,4.926l11.674,11.592l4.96-4.924C85.223,36.241,85.223,32.468,82.888,30.438z"/>
</svg>
