<?xml version="1.0" encoding="utf-8"?>
<!-- Generator: Adobe Illustrator 16.0.0, SVG Export Plug-In . SVG Version: 6.00 Build 0)  -->
<!DOCTYPE svg PUBLIC "-//W3C//DTD SVG 1.1//EN" "http://www.w3.org/Graphics/SVG/1.1/DTD/svg11.dtd">
<svg version="1.1" id="Layer_1" xmlns="http://www.w3.org/2000/svg" xmlns:xlink="http://www.w3.org/1999/xlink" x="0px" y="0px"
	 width="113.667px" height="111.333px" viewBox="0 0 113.667 111.333" enable-background="new 0 0 113.667 111.333"
	 xml:space="preserve">
<circle fill="#FFFFFF" cx="56.789" cy="55.648" r="52.5"/>
<path opacity="0.3" fill="#232323" enable-background="new    " d="M56.789,17.587c0,0,39.565,3.463,40.084,4.155
	c1.629,2.174,22.734,25.226,6.246,58.618c-9.451,19.141-29.842,25.145-29.842,25.145L58.365,91.803l11.299-11.471l-0.332-46.667
	l-4.018,1L56.789,17.587z"/>
<path fill="#06AED2" d="M67.637,32.49l-0.001,45.729c0.001,2.473-0.965,4.801-2.721,6.555c-1.752,1.754-4.078,2.717-6.551,2.719
	c-2.475-0.002-4.802-0.968-6.556-2.722c-1.754-1.753-2.72-4.083-2.722-6.556V27.698c-0.002-3.177,2.779-5.956,5.957-5.958
	c3.281,0.001,5.955,2.674,5.957,5.956v45.355c0,1.342-1.174,2.517-2.518,2.515c-0.67,0.002-1.299-0.26-1.777-0.733
	c-0.475-0.475-0.737-1.109-0.735-1.779V40.36c0.001-0.576-0.224-1.118-0.628-1.526c-0.409-0.408-0.951-0.631-1.529-0.631
	c-1.154,0.001-2.152,1-2.152,2.156v32.694c0,1.82,0.707,3.533,2,4.826c1.291,1.291,3.006,2,4.826,2c3.639,0,6.826-3.182,6.826-6.826
	V27.699c-0.001-2.74-1.07-5.316-3.012-7.26c-1.939-1.941-4.52-3.01-7.258-3.01s-5.314,1.069-7.256,3.01
	c-1.94,1.941-3.013,4.52-3.015,7.26l0.002,50.516c0,3.625,1.415,7.035,3.984,9.604c2.569,2.569,5.979,3.982,9.604,3.982
	c3.623,0,7.029-1.411,9.6-3.981c2.57-2.569,3.984-5.979,3.986-9.604l-0.002-45.721c0.002-0.578-0.224-1.117-0.629-1.527
	c-0.406-0.408-0.949-0.631-1.525-0.629C68.642,30.335,67.64,31.337,67.637,32.49"/>
</svg>
