<?xml version="1.0" encoding="utf-8"?>
<!-- Generator: Adobe Illustrator 16.0.0, SVG Export Plug-In . SVG Version: 6.00 Build 0)  -->
<!DOCTYPE svg PUBLIC "-//W3C//DTD SVG 1.1//EN" "http://www.w3.org/Graphics/SVG/1.1/DTD/svg11.dtd">
<svg version="1.1" id="Layer_1" xmlns="http://www.w3.org/2000/svg" xmlns:xlink="http://www.w3.org/1999/xlink" x="0px" y="0px"
	 width="113.667px" height="114.186px" viewBox="0 0 113.667 114.186" enable-background="new 0 0 113.667 114.186"
	 xml:space="preserve">
<g>
	<defs>
		<rect id="SVGID_1_" x="3.528" y="4.098" width="103.439" height="104.169"/>
	</defs>
	<clipPath id="SVGID_2_">
		<use xlink:href="#SVGID_1_"  overflow="visible"/>
	</clipPath>
	<path clip-path="url(#SVGID_2_)" fill="#FFFFFF" d="M106.967,56.184c0,28.767-23.156,52.089-51.721,52.089
		c-28.562,0-51.719-23.322-51.719-52.089c0-28.768,23.156-52.089,51.719-52.089C83.811,4.095,106.967,27.416,106.967,56.184"/>
</g>
<path opacity="0.3" fill="#232323" d="M79.1,28.865l5,5.978l22.867,21.341c0,0,0.384,12.814-6.58,25.437
	c-7.554,13.69-27.179,30.315-53.219,26.02L26.211,85.226l14.657-3.457l2.136-2.029l32.532-32.534l7.021-6.84L79.1,28.865z"/>
<path fill="#06AED2" d="M29.368,70.268l11.501,11.501l-0.285,0.57l-14.372,2.887l2.871-14.372L29.368,70.268z M31.413,68.149
	L43.004,79.74l32.532-32.534L63.946,35.615L31.413,68.149z M82.557,32.308L79.1,28.865c-2.301-2.3-5.743-2.3-8.043,0l-4.887,4.886
	l11.501,11.501l4.886-4.886C84.858,38.066,84.858,34.322,82.557,32.308z"/>
</svg>
